<svg width="601" height="135" viewBox="0 0 601 135" fill="none" xmlns="http://www.w3.org/2000/svg">
<path d="M262.321 10.4341C260.861 7.83824 258.903 5.55677 256.558 3.72105C253.815 1.6754 250.467 0.604857 247.046 0.679429C243.635 0.616289 240.296 1.66556 237.534 3.66857C235.146 5.4703 233.156 7.74471 231.686 10.3499L174.725 105.321L198.885 128.479L246.277 48.0894L266.528 82.1173H236.258L222.53 105.874L280.628 105.996L296.879 133.257H336.239L262.321 10.4341Z" fill="#1B62F8"/>
<path d="M407.13 1.33297V79.5485L333.897 6.88162C332.119 5.03093 330.028 3.50836 327.721 2.38387C325.526 1.3639 323.135 0.8357 320.715 0.836209C318.371 0.770959 316.042 1.22723 313.896 2.17204C311.75 3.11685 309.841 4.52661 308.307 6.29941C305.326 9.98284 303.787 14.6248 303.977 19.3593V68.7247L336.018 122.357V55.1899L408.929 128.522C413.052 132.637 417.692 134.726 422.743 134.726C425.022 134.769 427.282 134.311 429.365 133.385C431.447 132.458 433.301 131.086 434.795 129.365C437.7 126.048 439.172 121.606 439.172 116.183V1.33297H407.13Z" fill="#1B62F8"/>
<path d="M595.741 40.7047C592.793 33.0315 588.267 26.0632 582.454 20.2513C576.641 14.4394 569.672 9.9137 561.999 6.9674C553.755 3.78496 544.983 2.19496 536.147 2.28169H507.284C498.672 2.20874 490.125 3.76675 482.093 6.87341C474.509 9.84023 467.6 14.3019 461.775 19.9932C455.903 25.8017 451.309 32.7737 448.289 40.4619C445.03 48.7734 443.399 57.6337 443.483 66.561C443.417 75.5272 445.025 84.4269 448.225 92.8029C451.24 100.685 455.785 107.893 461.598 114.011C467.373 120.009 474.274 124.808 481.906 128.134C489.922 131.619 498.581 133.382 507.321 133.307H536.167C549.047 133.51 561.675 129.73 572.326 122.486C582.978 115.241 591.132 104.885 595.676 92.831C598.879 84.4558 600.487 75.5555 600.418 66.5891C600.517 57.7422 598.929 48.9576 595.741 40.7047ZM536.166 100.242H507.284C503.05 100.284 498.854 99.4532 494.956 97.8011C491.314 96.2552 488.026 93.9816 485.294 91.1198C482.502 88.1409 480.329 84.6367 478.903 80.8109C477.303 76.5647 476.502 72.0591 476.542 67.5216C476.481 62.9963 477.275 58.5002 478.884 54.27C480.325 50.5308 482.49 47.1133 485.256 44.2138C487.992 41.3951 491.272 39.1629 494.899 37.6534C498.83 36.0643 503.039 35.2802 507.279 35.3477H536.162C540.497 35.2992 544.799 36.1137 548.817 37.7437C552.534 39.2276 555.898 41.4748 558.693 44.3402C561.487 47.2056 563.649 50.6254 565.039 54.3786C566.644 58.5861 567.446 63.0575 567.401 67.5606C567.44 72.0982 566.639 76.6038 565.039 80.85C563.605 84.6659 561.415 88.1531 558.601 91.1027C555.803 93.977 552.457 96.2599 548.761 97.8157C544.771 99.4733 540.485 100.298 536.166 100.242Z" fill="#1B62F8"/>
<path d="M130.707 63.9734L195.877 2.30859H138.598L102.068 36.8796L130.492 63.7659L130.707 63.9734Z" fill="#1B62F8"/>
<path d="M130.492 71.7971L102.068 98.6932L138.598 133.256H195.877L130.707 71.5908L130.492 71.7971Z" fill="#1B62F8"/>
<path d="M57.4889 2.30859H0.209473L69.399 67.7877L0.209473 133.257H57.4889L126.694 67.7877L57.4889 2.30859Z" fill="#1B62F8"/>
</svg>
