<svg width="601" height="135" viewBox="0 0 601 135" fill="none" xmlns="http://www.w3.org/2000/svg">
<path d="M262.321 10.4087C260.861 7.81285 258.903 5.53138 256.558 3.69566C253.815 1.65001 250.467 0.579467 247.046 0.654039C243.635 0.590899 240.296 1.64017 237.534 3.64318C235.146 5.44491 233.156 7.71931 231.686 10.3245L174.725 105.296L198.885 128.453L246.277 48.064L266.528 82.0919H236.258L222.53 105.849L280.628 105.971L296.879 133.232H336.239L262.321 10.4087Z" fill="#FCFCFD"/>
<path d="M407.13 1.30758V79.5231L333.897 6.85622C332.119 5.00554 330.028 3.48297 327.721 2.35848C325.526 1.33851 323.135 0.81031 320.715 0.810818C318.371 0.745569 316.042 1.20184 313.896 2.14665C311.75 3.09146 309.841 4.50122 308.307 6.27402C305.326 9.95745 303.787 14.5994 303.977 19.334V68.6993L336.018 122.332V55.1646L408.929 128.497C413.052 132.611 417.692 134.701 422.743 134.701C425.022 134.743 427.282 134.285 429.365 133.359C431.447 132.433 433.301 131.061 434.795 129.34C437.7 126.023 439.172 121.581 439.172 116.158V1.30758H407.13Z" fill="#FCFCFD"/>
<path d="M595.741 40.6794C592.793 33.0061 588.267 26.0378 582.454 20.2259C576.641 14.414 569.672 9.88831 561.999 6.942C553.755 3.75957 544.983 2.16957 536.147 2.2563H507.284C498.672 2.18335 490.125 3.74136 482.093 6.84802C474.509 9.81484 467.6 14.2765 461.775 19.9678C455.903 25.7764 451.309 32.7484 448.289 40.4365C445.03 48.748 443.399 57.6083 443.483 66.5356C443.417 75.5018 445.025 84.4015 448.225 92.7775C451.24 100.66 455.785 107.868 461.598 113.986C467.373 119.984 474.274 124.783 481.906 128.109C489.922 131.594 498.581 133.356 507.321 133.282H536.167C549.047 133.484 561.675 129.705 572.326 122.46C582.978 115.216 591.132 104.859 595.676 92.8056C598.879 84.4304 600.487 75.5301 600.418 66.5637C600.517 57.7169 598.929 48.9322 595.741 40.6794ZM536.166 100.217H507.284C503.05 100.259 498.854 99.4278 494.956 97.7757C491.314 96.2298 488.026 93.9562 485.294 91.0944C482.502 88.1155 480.329 84.6113 478.903 80.7856C477.303 76.5394 476.502 72.0337 476.542 67.4962C476.481 62.9709 477.275 58.4748 478.884 54.2446C480.325 50.5054 482.49 47.0879 485.256 44.1884C487.992 41.3697 491.272 39.1375 494.899 37.628C498.83 36.0389 503.039 35.2548 507.279 35.3223H536.162C540.497 35.2738 544.799 36.0883 548.817 37.7183C552.534 39.2022 555.898 41.4494 558.693 44.3148C561.487 47.1802 563.649 50.6 565.039 54.3532C566.644 58.5607 567.446 63.0321 567.401 67.5352C567.44 72.0728 566.639 76.5784 565.039 80.8246C563.605 84.6405 561.415 88.1277 558.601 91.0773C555.803 93.9516 552.457 96.2345 548.761 97.7903C544.771 99.448 540.485 100.273 536.166 100.217Z" fill="#FCFCFD"/>
<path d="M130.707 63.948L195.877 2.2832H138.598L102.068 36.8542L130.492 63.7406L130.707 63.948Z" fill="#FCFCFD"/>
<path d="M130.492 71.7717L102.068 98.6678L138.598 133.23H195.877L130.707 71.5654L130.492 71.7717Z" fill="#FCFCFD"/>
<path d="M57.4889 2.2832H0.209473L69.399 67.7623L0.209473 133.232H57.4889L126.694 67.7623L57.4889 2.2832Z" fill="#FCFCFD"/>
</svg>
